Coordinates
version=1
nRows=9
nColumns=24
inDegrees=yes

Units are S.I. units (second, meters, Newtons, ...)
Angles are in degrees.

endheader
time	pelvis_tilt	pelvis_list	pelvis_rotation	pelvis_tx	pelvis_ty	pelvis_tz	hip_flexion_r	hip_adduction_r	hip_rotation_r	knee_angle_r	ankle_angle_r	subtalar_angle_r	mtp_angle_r	hip_flexion_l	hip_adduction_l	hip_rotation_l	knee_angle_l	ankle_angle_l	subtalar_angle_l	mtp_angle_l	lumbar_extension	lumbar_bending	lumbar_rotation
      4.55000000	     -9.65477503	      8.11502427	      2.45990848	     -0.33015465	     -0.01817908	      0.65392872	     25.46491204	    -12.99267209	     -3.04288396	    -64.46449085	     -5.74328394	     -1.68642860	     15.75976496	     16.47624890	     11.98166020	     -0.43675954	    -15.48232087	      2.59680211	      7.97956874	      1.94801310	      8.23820352	    -10.17772475	     -2.09337076
      4.55500000	     -9.65771969	      7.77849525	      2.80040226	     -0.32407513	     -0.01714842	      0.65342325	     26.12247991	    -12.75005908	     -3.45952938	    -63.89048856	     -5.51830130	     -1.33311921	     15.90720593	     15.71300050	     11.77416961	      0.30661596	    -14.93780448	      2.73336844	      7.75114899	      1.59107867	      8.15099707	     -9.88653177	     -2.67807929
      4.56000000	     -9.65968838	      7.44681734	      3.14167141	     -0.31796964	     -0.01618211	      0.65292610	     26.75442605	    -12.51458138	     -3.88245219	    -63.23965280	     -5.31473534	     -1.04279226	     16.00664324	     14.95358967	     11.55776485	      1.03224153	    -14.39661586	      2.86397238	      7.51773617	      1.21395719	      8.07176191	     -9.59867257	     -3.23882882
      4.56500000	     -9.66198752	      7.12345819	      3.47479674	     -0.31188350	     -0.01529448	      0.65246040	     27.37399551	    -12.28379059	     -4.29487100	    -62.52389621	     -5.13762000	     -0.81554392	     16.05167805	     14.20736625	     11.33142903	      1.72459906	    -13.86676471	      2.99999673	      7.30075498	      0.83874916	      7.99765358	     -9.32067404	     -3.78983780
      4.57000000	     -9.66160882	      6.81253317	      3.80494901	     -0.30579447	     -0.01448606	      0.65201910	     27.97317115	    -12.06628174	     -4.70437836	    -61.74484112	     -4.97960786	     -0.65900911	     16.03762566	     13.46450498	     11.10227290	      2.40617586	    -13.34115907	      3.14043844	      7.09121757	      0.45298330	      7.92436271	     -9.05469838	     -4.32401878
      4.57500000	     -9.66177598	      6.51381189	      4.12587872	     -0.29970354	     -0.01376488	      0.65159706	     28.55730638	    -11.86040043	     -5.10354657	    -60.90543515	     -4.83776704	     -0.56727199	     15.95670259	     12.73029189	     10.86976576	      3.06102819	    -12.82200431	      3.28907197	      6.89639472	      0.06446093	      7.85708015	     -8.80140529	     -4.83606707
      4.58000000	     -9.66559108	      6.22512548	      4.43661338	     -0.29362453	     -0.01312975	      0.65120281	     29.13091074	    -11.66179380	     -5.48879192	    -60.00693834	     -4.71399787	     -0.53611493	     15.80289114	     12.01212845	     10.63078798	      3.67256775	    -12.31313236	      3.44055643	      6.72786362	     -0.30545267	      7.79609018	     -8.55654991	     -5.33525796
      4.58500000	     -9.66836110	      5.95228061	      4.73779650	     -0.28755408	     -0.01257920	      0.65083528	     29.68644835	    -11.47885350	     -5.86450658	    -59.05026765	     -4.60197901	     -0.56661440	     15.56658235	     11.30058476	     10.39293039	      4.25502357	    -11.80822187	      3.59656355	      6.57374329	     -0.66690964	      7.73629105	     -8.32854803	     -5.81491199
      4.59000000	     -9.67371058	      5.69096045	      5.02372801	     -0.28149160	     -0.01211844	      0.65047735	     30.22891901	    -11.30566099	     -6.22392577	    -58.03732242	     -4.49876497	     -0.65001737	     15.24393713	     10.60101044	     10.15331042	      4.80085937	    -11.31050054	      3.75648857	      6.44218535	     -1.01036907	      7.68126600	     -8.10647120	     -6.27067908
